<?xml version="1.0" encoding="utf-8" ?>
<!DOCTYPE svg PUBLIC "-//W3C//DTD SVG 1.1//EN" "http://www.w3.org/Graphics/SVG/1.1/DTD/svg11.dtd">
<svg height="281" version="1.1" width="1130" xmlns="http://www.w3.org/2000/svg">
<rect fill="#ffffff" height="75" stroke="#ffffff" stroke-width="1" width="152" x="598" y="166"/>
<rect fill="none" height="75" stroke="#000000" stroke-width="1" width="152" x="598" y="166"/>
<text font-family="Dialog" font-size="12" x="643" y="180">
FaceGroup</text>
<rect fill="#000000" height="1" stroke="#000000" stroke-width="1" width="152" x="598" y="190"/>
<text font-family="Dialog" font-size="12" x="602" y="205">
faceList : ArrayList&lt;Face&gt;</text>
<rect fill="#000000" height="1" stroke="#000000" stroke-width="1" width="152" x="598" y="215"/>
<text font-family="Dialog" font-size="12" x="602" y="230">
addFace(Face) : void</text>
<rect fill="#ffffff" height="109" stroke="#ffffff" stroke-width="1" width="203" x="262" y="118"/>
<rect fill="none" height="109" stroke="#000000" stroke-width="1" width="203" x="262" y="118"/>
<text font-family="Dialog" font-size="12" x="351" y="132">
JObj</text>
<rect fill="#000000" height="1" stroke="#000000" stroke-width="1" width="203" x="262" y="142"/>
<text font-family="Dialog" font-size="12" x="266" y="157">
verticies : Verticies</text>
<text font-family="Dialog" font-size="12" x="266" y="174">
faceGroups : ArrayList&lt;FaceGroup&gt;</text>
<rect fill="#000000" height="1" stroke="#000000" stroke-width="1" width="203" x="262" y="192"/>
<text font-family="Dialog" font-size="12" x="266" y="207">
addFaceGroup(FaceGroup) : void</text>
<rect fill="#ffffff" height="120" stroke="#ffffff" stroke-width="1" width="206" x="910" y="14"/>
<rect fill="none" height="120" stroke="#000000" stroke-width="1" width="206" x="910" y="14"/>
<text font-family="Dialog" font-size="12" x="996" y="28">
Vertex</text>
<rect fill="#000000" height="1" stroke="#000000" stroke-width="1" width="206" x="910" y="38"/>
<text font-family="Dialog" font-size="12" x="914" y="53">
xCoordinate : Double</text>
<text font-family="Dialog" font-size="12" x="914" y="70">
yCoordinate : Double</text>
<text font-family="Dialog" font-size="12" x="914" y="87">
zCoordinate : Double</text>
<rect fill="#000000" height="1" stroke="#000000" stroke-width="1" width="206" x="910" y="102"/>
<text font-family="Dialog" font-size="12" x="914" y="117">
Vertex(Double,Double,Double) : void</text>
<rect fill="#ffffff" height="92" stroke="#ffffff" stroke-width="1" width="165" x="598" y="38"/>
<rect fill="none" height="92" stroke="#000000" stroke-width="1" width="165" x="598" y="38"/>
<text font-family="Dialog" font-size="12" x="657" y="52">
Verticies</text>
<rect fill="#000000" height="1" stroke="#000000" stroke-width="1" width="165" x="598" y="62"/>
<text font-family="Dialog" font-size="12" x="602" y="77">
vertexList : ArrayList&lt;Vertex&gt;</text>
<rect fill="#000000" height="1" stroke="#000000" stroke-width="1" width="165" x="598" y="87"/>
<text font-family="Dialog" font-size="12" x="602" y="102">
getVertex(Integer) : Vertex</text>
<text font-family="Dialog" font-size="12" x="602" y="119">
addVertex(Vertex) : void</text>
<polyline fill="none" points="762,78 910,78" stroke="#000000" stroke-width="1"/>
<polygon fill="#000000" points="762,78 772,73 782,78 772,83" stroke="#000000" stroke-width="1"/>
<polygon fill="none" points="762,78 772,73 782,78 772,83" stroke="#000000" stroke-width="1"/>
<text font-family="Dialog" font-size="12" x="773" y="73">
1</text>
<text font-family="Dialog" font-size="12" x="886" y="73">
3..*</text>
<polyline fill="none" points="464,134 526,134 574,94 598,94" stroke="#000000" stroke-width="1"/>
<polygon fill="#000000" points="464,134 474,129 484,134 474,139" stroke="#000000" stroke-width="1"/>
<polygon fill="none" points="464,134 474,129 484,134 474,139" stroke="#000000" stroke-width="1"/>
<text font-family="Dialog" font-size="12" x="475" y="129">
1</text>
<text font-family="Dialog" font-size="12" x="578" y="89">
1</text>
<polyline fill="none" points="464,190 526,190 574,230 598,230" stroke="#000000" stroke-width="1"/>
<polygon fill="#000000" points="464,190 474,185 484,190 474,195" stroke="#000000" stroke-width="1"/>
<polygon fill="none" points="464,190 474,185 484,190 474,195" stroke="#000000" stroke-width="1"/>
<text font-family="Dialog" font-size="12" x="475" y="185">
1</text>
<text font-family="Dialog" font-size="12" x="571" y="253">
1..*</text>
<rect fill="#ffffff" height="75" stroke="#ffffff" stroke-width="1" width="167" x="902" y="190"/>
<rect fill="none" height="75" stroke="#000000" stroke-width="1" width="167" x="902" y="190"/>
<text font-family="Dialog" font-size="12" x="972" y="204">
Face</text>
<rect fill="#000000" height="1" stroke="#000000" stroke-width="1" width="167" x="902" y="214"/>
<text font-family="Dialog" font-size="12" x="906" y="229">
vertexIDs : ArrayList&lt;Integer&gt;</text>
<rect fill="#000000" height="1" stroke="#000000" stroke-width="1" width="167" x="902" y="239"/>
<text font-family="Dialog" font-size="12" x="906" y="254">
addVertexID(Integer) : void</text>
<polyline fill="none" points="749,222 902,222" stroke="#000000" stroke-width="1"/>
<polygon fill="#000000" points="749,222 759,217 769,222 759,227" stroke="#000000" stroke-width="1"/>
<polygon fill="none" points="749,222 759,217 769,222 759,227" stroke="#000000" stroke-width="1"/>
<text font-family="Dialog" font-size="12" x="760" y="217">
1</text>
<text font-family="Dialog" font-size="12" x="878" y="217">
1..*</text>
<rect fill="#ffffff" height="92" stroke="#ffffff" stroke-width="1" width="144" x="14" y="94"/>
<rect fill="none" height="92" stroke="#000000" stroke-width="1" width="144" x="14" y="94"/>
<text font-family="Dialog" font-size="12" x="67" y="108">
Parser</text>
<rect fill="#000000" height="1" stroke="#000000" stroke-width="1" width="144" x="14" y="118"/>
<text font-family="Dialog" font-size="12" x="18" y="133">
objData : JObj</text>
<text font-family="Dialog" font-size="12" x="18" y="150">
objFile : File</text>
<rect fill="#000000" height="1" stroke="#000000" stroke-width="1" width="144" x="14" y="162"/>
<polyline fill="none" points="157,166 262,166" stroke="#000000" stroke-width="1"/>
<polygon fill="#000000" points="157,166 167,161 177,166 167,171" stroke="#000000" stroke-width="1"/>
<polygon fill="none" points="157,166 167,161 177,166 167,171" stroke="#000000" stroke-width="1"/>
<text font-family="Dialog" font-size="12" x="168" y="161">
1</text>
<text font-family="Dialog" font-size="12" x="243" y="161">
1</text>
</svg>
